<svg xmlns="http://www.w3.org/2000/svg" viewBox="0 0 512 512">
  <defs>
    <linearGradient id="bg" x1="0" y1="0" x2="0" y2="1">
      <stop offset="0%" stop-color="#121230"/>
      <stop offset="100%" stop-color="#080720"/>
    </linearGradient>
    <linearGradient id="redGlow" x1="0" y1="0" x2="1" y2="1">
      <stop offset="0%" stop-color="#ff1a2d"/>
      <stop offset="100%" stop-color="#c4000e"/>
    </linearGradient>
    <linearGradient id="goldText" x1="0" y1="0" x2="1" y2="1">
      <stop offset="0%" stop-color="#ffca28"/>
      <stop offset="100%" stop-color="#ffb300"/>
    </linearGradient>
  </defs>
  <!-- Background -->
  <rect width="512" height="512" rx="96" fill="url(#bg)"/>
  <!-- Controller body -->
  <path d="M156 200 C156 180 172 164 192 164 L320 164 C340 164 356 180 356 200 L356 260 C356 280 340 296 320 296 L192 296 C172 296 156 280 156 260 Z" fill="url(#redGlow)" opacity="0.9"/>
  <!-- Left grip -->
  <path d="M172 270 L172 320 C172 342 160 358 144 358 C128 358 116 342 116 320 L116 240 C116 228 128 220 140 226 L172 242 Z" fill="url(#redGlow)" opacity="0.85"/>
  <!-- Right grip -->
  <path d="M340 270 L340 320 C340 342 352 358 368 358 C384 358 396 342 396 320 L396 240 C396 228 384 220 372 226 L340 242 Z" fill="url(#redGlow)" opacity="0.85"/>
  <!-- D-pad vertical -->
  <rect x="198" y="198" width="16" height="48" rx="4" fill="#080720" opacity="0.6"/>
  <!-- D-pad horizontal -->
  <rect x="190" y="214" width="40" height="16" rx="4" fill="#080720" opacity="0.6"/>
  <!-- Buttons -->
  <circle cx="312" cy="210" r="10" fill="#080720" opacity="0.5"/>
  <circle cx="336" cy="222" r="10" fill="#080720" opacity="0.5"/>
  <circle cx="312" cy="234" r="10" fill="#080720" opacity="0.5"/>
  <circle cx="288" cy="222" r="10" fill="#080720" opacity="0.5"/>
  <!-- FGN Text -->
  <text x="256" y="420" text-anchor="middle" font-family="'Fredoka One', 'Arial Black', sans-serif" font-weight="700" font-size="96" fill="url(#goldText)">FGN</text>
</svg>
